<mxfile host="app.diagrams.net" agent="Mozilla/5.0 (Windows NT 10.0; Win64; x64) AppleWebKit/537.36 (KHTML, like Gecko) Chrome/128.0.0.0 Safari/537.36" version="24.7.13">
  <diagram name="Страница — 1" id="ILUcZ4VWC_NbgSZ-m6gs">
    <mxGraphModel dx="2626" dy="1043" grid="1" gridSize="10" guides="1" tooltips="1" connect="1" arrows="1" fold="1" page="1" pageScale="1" pageWidth="827" pageHeight="1169" math="0" shadow="0">
      <root>
        <mxCell id="0" />
        <mxCell id="1" parent="0" />
        <mxCell id="S5P2pqd0xD6YAmX3UqQr-1" value="Пользователь" style="shape=umlActor;verticalLabelPosition=bottom;verticalAlign=top;html=1;outlineConnect=0;" vertex="1" parent="1">
          <mxGeometry x="-170" y="410" width="30" height="60" as="geometry" />
        </mxCell>
        <mxCell id="S5P2pqd0xD6YAmX3UqQr-2" value="Директор" style="shape=umlActor;verticalLabelPosition=bottom;verticalAlign=top;html=1;outlineConnect=0;" vertex="1" parent="1">
          <mxGeometry x="60" y="30" width="30" height="60" as="geometry" />
        </mxCell>
        <mxCell id="S5P2pqd0xD6YAmX3UqQr-5" value="Администратор" style="shape=umlActor;verticalLabelPosition=bottom;verticalAlign=top;html=1;outlineConnect=0;" vertex="1" parent="1">
          <mxGeometry x="60" y="130" width="30" height="60" as="geometry" />
        </mxCell>
        <mxCell id="S5P2pqd0xD6YAmX3UqQr-6" value="Ветеринар&lt;div&gt;&lt;br&gt;&lt;/div&gt;" style="shape=umlActor;verticalLabelPosition=bottom;verticalAlign=top;html=1;outlineConnect=0;" vertex="1" parent="1">
          <mxGeometry x="60" y="230" width="30" height="60" as="geometry" />
        </mxCell>
        <mxCell id="S5P2pqd0xD6YAmX3UqQr-7" value="&lt;div&gt;Специалист по уходу&lt;/div&gt;&lt;div&gt;за животными&lt;/div&gt;&lt;div&gt;&lt;br&gt;&lt;/div&gt;" style="shape=umlActor;verticalLabelPosition=bottom;verticalAlign=top;html=1;outlineConnect=0;" vertex="1" parent="1">
          <mxGeometry x="60" y="450" width="30" height="60" as="geometry" />
        </mxCell>
        <mxCell id="S5P2pqd0xD6YAmX3UqQr-8" value="&lt;div&gt;Куратор животного&lt;/div&gt;&lt;div&gt;&lt;br&gt;&lt;/div&gt;" style="shape=umlActor;verticalLabelPosition=bottom;verticalAlign=top;html=1;outlineConnect=0;" vertex="1" parent="1">
          <mxGeometry x="60" y="340" width="30" height="60" as="geometry" />
        </mxCell>
        <mxCell id="S5P2pqd0xD6YAmX3UqQr-10" value="&lt;div&gt;Волонтер&lt;/div&gt;" style="shape=umlActor;verticalLabelPosition=bottom;verticalAlign=top;html=1;outlineConnect=0;" vertex="1" parent="1">
          <mxGeometry x="60" y="560" width="30" height="60" as="geometry" />
        </mxCell>
        <mxCell id="S5P2pqd0xD6YAmX3UqQr-11" value="&lt;div&gt;Специалист по работе&amp;nbsp;&lt;/div&gt;&lt;div&gt;с усыновителями&lt;/div&gt;&lt;div&gt;&lt;br&gt;&lt;/div&gt;" style="shape=umlActor;verticalLabelPosition=bottom;verticalAlign=top;html=1;outlineConnect=0;" vertex="1" parent="1">
          <mxGeometry x="60" y="670" width="30" height="60" as="geometry" />
        </mxCell>
        <mxCell id="S5P2pqd0xD6YAmX3UqQr-12" value="&lt;div&gt;Потенциальный&lt;/div&gt;&lt;div&gt;хозяин&lt;/div&gt;" style="shape=umlActor;verticalLabelPosition=bottom;verticalAlign=top;html=1;outlineConnect=0;" vertex="1" parent="1">
          <mxGeometry x="60" y="780" width="30" height="60" as="geometry" />
        </mxCell>
        <mxCell id="S5P2pqd0xD6YAmX3UqQr-14" value="" style="endArrow=block;html=1;rounded=0;endFill=0;" edge="1" parent="1">
          <mxGeometry width="50" height="50" relative="1" as="geometry">
            <mxPoint x="50" y="60" as="sourcePoint" />
            <mxPoint x="-130" y="420" as="targetPoint" />
          </mxGeometry>
        </mxCell>
        <mxCell id="S5P2pqd0xD6YAmX3UqQr-15" value="" style="endArrow=block;html=1;rounded=0;endFill=0;" edge="1" parent="1">
          <mxGeometry width="50" height="50" relative="1" as="geometry">
            <mxPoint x="50" y="820" as="sourcePoint" />
            <mxPoint x="-120" y="490" as="targetPoint" />
          </mxGeometry>
        </mxCell>
        <mxCell id="S5P2pqd0xD6YAmX3UqQr-16" value="" style="endArrow=block;html=1;rounded=0;endFill=0;" edge="1" parent="1">
          <mxGeometry width="50" height="50" relative="1" as="geometry">
            <mxPoint x="50" y="170" as="sourcePoint" />
            <mxPoint x="-120" y="430" as="targetPoint" />
          </mxGeometry>
        </mxCell>
        <mxCell id="S5P2pqd0xD6YAmX3UqQr-17" value="" style="endArrow=block;html=1;rounded=0;endFill=0;" edge="1" parent="1">
          <mxGeometry width="50" height="50" relative="1" as="geometry">
            <mxPoint x="50" y="700" as="sourcePoint" />
            <mxPoint x="-110" y="480" as="targetPoint" />
          </mxGeometry>
        </mxCell>
        <mxCell id="S5P2pqd0xD6YAmX3UqQr-18" value="" style="endArrow=block;html=1;rounded=0;endFill=0;" edge="1" parent="1">
          <mxGeometry width="50" height="50" relative="1" as="geometry">
            <mxPoint x="50" y="260" as="sourcePoint" />
            <mxPoint x="-110" y="440" as="targetPoint" />
          </mxGeometry>
        </mxCell>
        <mxCell id="S5P2pqd0xD6YAmX3UqQr-19" value="" style="endArrow=block;html=1;rounded=0;endFill=0;" edge="1" parent="1">
          <mxGeometry width="50" height="50" relative="1" as="geometry">
            <mxPoint x="50" y="600" as="sourcePoint" />
            <mxPoint x="-110" y="470" as="targetPoint" />
          </mxGeometry>
        </mxCell>
        <mxCell id="S5P2pqd0xD6YAmX3UqQr-20" value="" style="endArrow=block;html=1;rounded=0;endFill=0;" edge="1" parent="1">
          <mxGeometry width="50" height="50" relative="1" as="geometry">
            <mxPoint x="50" y="380" as="sourcePoint" />
            <mxPoint x="-110" y="450" as="targetPoint" />
          </mxGeometry>
        </mxCell>
        <mxCell id="S5P2pqd0xD6YAmX3UqQr-21" value="" style="endArrow=block;html=1;rounded=0;endFill=0;" edge="1" parent="1">
          <mxGeometry width="50" height="50" relative="1" as="geometry">
            <mxPoint x="40" y="510" as="sourcePoint" />
            <mxPoint x="-110" y="460" as="targetPoint" />
          </mxGeometry>
        </mxCell>
        <mxCell id="S5P2pqd0xD6YAmX3UqQr-22" value="просмотр сводных отчетов" style="ellipse;whiteSpace=wrap;html=1;" vertex="1" parent="1">
          <mxGeometry x="600" y="35" width="90" height="50" as="geometry" />
        </mxCell>
        <mxCell id="S5P2pqd0xD6YAmX3UqQr-23" value="" style="endArrow=none;html=1;rounded=0;entryX=0;entryY=0.5;entryDx=0;entryDy=0;" edge="1" parent="1" target="S5P2pqd0xD6YAmX3UqQr-22">
          <mxGeometry width="50" height="50" relative="1" as="geometry">
            <mxPoint x="100" y="60" as="sourcePoint" />
            <mxPoint x="460" y="420" as="targetPoint" />
          </mxGeometry>
        </mxCell>
        <mxCell id="S5P2pqd0xD6YAmX3UqQr-24" value="ИС" style="shape=umlActor;verticalLabelPosition=bottom;verticalAlign=top;html=1;outlineConnect=0;" vertex="1" parent="1">
          <mxGeometry x="910" y="280" width="30" height="60" as="geometry" />
        </mxCell>
        <mxCell id="S5P2pqd0xD6YAmX3UqQr-25" value="БД" style="shape=umlActor;verticalLabelPosition=bottom;verticalAlign=top;html=1;outlineConnect=0;" vertex="1" parent="1">
          <mxGeometry x="910" y="430" width="30" height="60" as="geometry" />
        </mxCell>
        <mxCell id="S5P2pqd0xD6YAmX3UqQr-27" value="" style="endArrow=none;html=1;rounded=0;entryX=1;entryY=0.5;entryDx=0;entryDy=0;" edge="1" parent="1" target="S5P2pqd0xD6YAmX3UqQr-22">
          <mxGeometry width="50" height="50" relative="1" as="geometry">
            <mxPoint x="900" y="290" as="sourcePoint" />
            <mxPoint x="260" y="65" as="targetPoint" />
          </mxGeometry>
        </mxCell>
        <mxCell id="S5P2pqd0xD6YAmX3UqQr-28" value="" style="endArrow=none;html=1;rounded=0;entryX=1;entryY=1;entryDx=0;entryDy=0;" edge="1" parent="1" target="S5P2pqd0xD6YAmX3UqQr-22">
          <mxGeometry width="50" height="50" relative="1" as="geometry">
            <mxPoint x="900" y="460" as="sourcePoint" />
            <mxPoint x="350" y="65" as="targetPoint" />
          </mxGeometry>
        </mxCell>
        <mxCell id="S5P2pqd0xD6YAmX3UqQr-29" value="Добавление&lt;div&gt;нового&lt;/div&gt;&lt;div&gt;сотрудника&lt;/div&gt;" style="ellipse;whiteSpace=wrap;html=1;" vertex="1" parent="1">
          <mxGeometry x="230" y="130" width="100" height="55" as="geometry" />
        </mxCell>
        <mxCell id="S5P2pqd0xD6YAmX3UqQr-30" value="" style="endArrow=none;html=1;rounded=0;entryX=0;entryY=0.5;entryDx=0;entryDy=0;" edge="1" parent="1" source="S5P2pqd0xD6YAmX3UqQr-5" target="S5P2pqd0xD6YAmX3UqQr-29">
          <mxGeometry width="50" height="50" relative="1" as="geometry">
            <mxPoint x="110" y="70" as="sourcePoint" />
            <mxPoint x="620" y="105" as="targetPoint" />
          </mxGeometry>
        </mxCell>
        <mxCell id="S5P2pqd0xD6YAmX3UqQr-31" value="" style="endArrow=none;html=1;rounded=0;entryX=1;entryY=0.5;entryDx=0;entryDy=0;" edge="1" parent="1" target="S5P2pqd0xD6YAmX3UqQr-29">
          <mxGeometry width="50" height="50" relative="1" as="geometry">
            <mxPoint x="900" y="310" as="sourcePoint" />
            <mxPoint x="240" y="168" as="targetPoint" />
          </mxGeometry>
        </mxCell>
        <mxCell id="S5P2pqd0xD6YAmX3UqQr-32" value="" style="endArrow=none;html=1;rounded=0;entryX=1;entryY=1;entryDx=0;entryDy=0;" edge="1" parent="1" target="S5P2pqd0xD6YAmX3UqQr-29">
          <mxGeometry width="50" height="50" relative="1" as="geometry">
            <mxPoint x="900" y="470" as="sourcePoint" />
            <mxPoint x="340" y="168" as="targetPoint" />
          </mxGeometry>
        </mxCell>
        <mxCell id="S5P2pqd0xD6YAmX3UqQr-33" value="Формирование&lt;div&gt;отчётности&lt;/div&gt;" style="ellipse;whiteSpace=wrap;html=1;" vertex="1" parent="1">
          <mxGeometry x="240" y="200" width="100" height="55" as="geometry" />
        </mxCell>
        <mxCell id="S5P2pqd0xD6YAmX3UqQr-34" value="" style="endArrow=none;html=1;rounded=0;entryX=0;entryY=0.5;entryDx=0;entryDy=0;" edge="1" parent="1" target="S5P2pqd0xD6YAmX3UqQr-33">
          <mxGeometry width="50" height="50" relative="1" as="geometry">
            <mxPoint x="100" y="170" as="sourcePoint" />
            <mxPoint x="240" y="168" as="targetPoint" />
          </mxGeometry>
        </mxCell>
        <mxCell id="S5P2pqd0xD6YAmX3UqQr-36" value="" style="endArrow=none;html=1;rounded=0;entryX=1;entryY=0.5;entryDx=0;entryDy=0;fillColor=#f8cecc;strokeColor=#b85450;dashed=1;" edge="1" parent="1" target="S5P2pqd0xD6YAmX3UqQr-33">
          <mxGeometry width="50" height="50" relative="1" as="geometry">
            <mxPoint x="900" y="320" as="sourcePoint" />
            <mxPoint x="210" y="238" as="targetPoint" />
          </mxGeometry>
        </mxCell>
        <mxCell id="S5P2pqd0xD6YAmX3UqQr-37" value="Запись данных&lt;div&gt;о лечении&lt;/div&gt;&lt;div&gt;и вакцинации&lt;/div&gt;" style="ellipse;whiteSpace=wrap;html=1;" vertex="1" parent="1">
          <mxGeometry x="220" y="270" width="120" height="55" as="geometry" />
        </mxCell>
        <mxCell id="S5P2pqd0xD6YAmX3UqQr-38" value="" style="endArrow=none;html=1;rounded=0;entryX=0;entryY=0.5;entryDx=0;entryDy=0;" edge="1" parent="1" source="S5P2pqd0xD6YAmX3UqQr-6" target="S5P2pqd0xD6YAmX3UqQr-37">
          <mxGeometry width="50" height="50" relative="1" as="geometry">
            <mxPoint x="110" y="180" as="sourcePoint" />
            <mxPoint x="250" y="238" as="targetPoint" />
          </mxGeometry>
        </mxCell>
        <mxCell id="S5P2pqd0xD6YAmX3UqQr-39" value="" style="endArrow=none;html=1;rounded=0;entryX=1;entryY=0.5;entryDx=0;entryDy=0;" edge="1" parent="1" target="S5P2pqd0xD6YAmX3UqQr-37">
          <mxGeometry width="50" height="50" relative="1" as="geometry">
            <mxPoint x="900" y="330" as="sourcePoint" />
            <mxPoint x="230" y="308" as="targetPoint" />
          </mxGeometry>
        </mxCell>
        <mxCell id="S5P2pqd0xD6YAmX3UqQr-40" value="" style="endArrow=none;html=1;rounded=0;entryX=1;entryY=1;entryDx=0;entryDy=0;" edge="1" parent="1" target="S5P2pqd0xD6YAmX3UqQr-37">
          <mxGeometry width="50" height="50" relative="1" as="geometry">
            <mxPoint x="900" y="480" as="sourcePoint" />
            <mxPoint x="350" y="308" as="targetPoint" />
          </mxGeometry>
        </mxCell>
        <mxCell id="S5P2pqd0xD6YAmX3UqQr-41" value="Внесение информации о кормлении, уборке вольера" style="ellipse;whiteSpace=wrap;html=1;" vertex="1" parent="1">
          <mxGeometry x="240" y="355" width="130" height="65" as="geometry" />
        </mxCell>
        <mxCell id="S5P2pqd0xD6YAmX3UqQr-42" value="" style="endArrow=none;html=1;rounded=0;entryX=0;entryY=0.5;entryDx=0;entryDy=0;" edge="1" parent="1" target="S5P2pqd0xD6YAmX3UqQr-41">
          <mxGeometry width="50" height="50" relative="1" as="geometry">
            <mxPoint x="100" y="380" as="sourcePoint" />
            <mxPoint x="230" y="308" as="targetPoint" />
          </mxGeometry>
        </mxCell>
        <mxCell id="S5P2pqd0xD6YAmX3UqQr-43" value="" style="endArrow=none;html=1;rounded=0;entryX=1;entryY=0.5;entryDx=0;entryDy=0;" edge="1" parent="1" target="S5P2pqd0xD6YAmX3UqQr-41">
          <mxGeometry width="50" height="50" relative="1" as="geometry">
            <mxPoint x="900" y="340" as="sourcePoint" />
            <mxPoint x="190" y="398" as="targetPoint" />
          </mxGeometry>
        </mxCell>
        <mxCell id="S5P2pqd0xD6YAmX3UqQr-44" value="" style="endArrow=none;html=1;rounded=0;entryX=1;entryY=1;entryDx=0;entryDy=0;" edge="1" parent="1" target="S5P2pqd0xD6YAmX3UqQr-41">
          <mxGeometry width="50" height="50" relative="1" as="geometry">
            <mxPoint x="900" y="490" as="sourcePoint" />
            <mxPoint x="320" y="398" as="targetPoint" />
          </mxGeometry>
        </mxCell>
        <mxCell id="S5P2pqd0xD6YAmX3UqQr-45" value="Назначение ветеринарных процедур" style="ellipse;whiteSpace=wrap;html=1;" vertex="1" parent="1">
          <mxGeometry x="225" y="430" width="110" height="60" as="geometry" />
        </mxCell>
        <mxCell id="S5P2pqd0xD6YAmX3UqQr-46" value="" style="endArrow=none;html=1;rounded=0;entryX=0;entryY=0.5;entryDx=0;entryDy=0;" edge="1" parent="1" target="S5P2pqd0xD6YAmX3UqQr-45">
          <mxGeometry width="50" height="50" relative="1" as="geometry">
            <mxPoint x="100" y="390" as="sourcePoint" />
            <mxPoint x="190" y="398" as="targetPoint" />
          </mxGeometry>
        </mxCell>
        <mxCell id="S5P2pqd0xD6YAmX3UqQr-47" value="" style="endArrow=none;html=1;rounded=0;entryX=0;entryY=0;entryDx=0;entryDy=0;" edge="1" parent="1" target="S5P2pqd0xD6YAmX3UqQr-45">
          <mxGeometry width="50" height="50" relative="1" as="geometry">
            <mxPoint x="90" y="270" as="sourcePoint" />
            <mxPoint x="190" y="470" as="targetPoint" />
          </mxGeometry>
        </mxCell>
        <mxCell id="S5P2pqd0xD6YAmX3UqQr-48" value="" style="endArrow=none;html=1;rounded=0;entryX=1;entryY=0.5;entryDx=0;entryDy=0;" edge="1" parent="1" target="S5P2pqd0xD6YAmX3UqQr-45">
          <mxGeometry width="50" height="50" relative="1" as="geometry">
            <mxPoint x="900" y="350" as="sourcePoint" />
            <mxPoint x="236" y="449" as="targetPoint" />
          </mxGeometry>
        </mxCell>
        <mxCell id="S5P2pqd0xD6YAmX3UqQr-49" value="&lt;h1 style=&quot;margin-top: 0px;&quot;&gt;Красный&lt;/h1&gt;&lt;p&gt;Красное обозначение - можно дополнить связь, под вопросом. Нужна консультация!&lt;/p&gt;" style="text;html=1;whiteSpace=wrap;overflow=hidden;rounded=0;" vertex="1" parent="1">
          <mxGeometry x="980" y="130" width="180" height="120" as="geometry" />
        </mxCell>
        <mxCell id="S5P2pqd0xD6YAmX3UqQr-50" value="Регистрация нового животного в системе&amp;nbsp;" style="ellipse;whiteSpace=wrap;html=1;" vertex="1" parent="1">
          <mxGeometry x="348" y="470" width="130" height="60" as="geometry" />
        </mxCell>
        <mxCell id="S5P2pqd0xD6YAmX3UqQr-51" value="Описание необходимого&amp;nbsp;&lt;div&gt;ухода&lt;/div&gt;" style="ellipse;whiteSpace=wrap;html=1;" vertex="1" parent="1">
          <mxGeometry x="363" y="540" width="100" height="50" as="geometry" />
        </mxCell>
        <mxCell id="S5P2pqd0xD6YAmX3UqQr-52" value="" style="endArrow=none;html=1;rounded=0;entryX=0;entryY=0.5;entryDx=0;entryDy=0;" edge="1" parent="1" target="S5P2pqd0xD6YAmX3UqQr-50">
          <mxGeometry width="50" height="50" relative="1" as="geometry">
            <mxPoint x="100" y="500" as="sourcePoint" />
            <mxPoint x="235" y="470" as="targetPoint" />
          </mxGeometry>
        </mxCell>
        <mxCell id="S5P2pqd0xD6YAmX3UqQr-53" value="" style="endArrow=none;html=1;rounded=0;entryX=1;entryY=0.5;entryDx=0;entryDy=0;" edge="1" parent="1" target="S5P2pqd0xD6YAmX3UqQr-50">
          <mxGeometry width="50" height="50" relative="1" as="geometry">
            <mxPoint x="900" y="360" as="sourcePoint" />
            <mxPoint x="170" y="540" as="targetPoint" />
          </mxGeometry>
        </mxCell>
        <mxCell id="S5P2pqd0xD6YAmX3UqQr-54" value="" style="endArrow=none;html=1;rounded=0;entryX=1;entryY=1;entryDx=0;entryDy=0;" edge="1" parent="1" target="S5P2pqd0xD6YAmX3UqQr-50">
          <mxGeometry width="50" height="50" relative="1" as="geometry">
            <mxPoint x="900" y="500" as="sourcePoint" />
            <mxPoint x="300" y="540" as="targetPoint" />
          </mxGeometry>
        </mxCell>
        <mxCell id="S5P2pqd0xD6YAmX3UqQr-55" value="" style="endArrow=none;html=1;rounded=0;entryX=0;entryY=0.5;entryDx=0;entryDy=0;" edge="1" parent="1" target="S5P2pqd0xD6YAmX3UqQr-51">
          <mxGeometry width="50" height="50" relative="1" as="geometry">
            <mxPoint x="100" y="510" as="sourcePoint" />
            <mxPoint x="170" y="540" as="targetPoint" />
          </mxGeometry>
        </mxCell>
        <mxCell id="S5P2pqd0xD6YAmX3UqQr-56" value="" style="endArrow=none;html=1;rounded=0;entryX=1;entryY=0.5;entryDx=0;entryDy=0;" edge="1" parent="1" target="S5P2pqd0xD6YAmX3UqQr-51">
          <mxGeometry width="50" height="50" relative="1" as="geometry">
            <mxPoint x="900" y="510" as="sourcePoint" />
            <mxPoint x="469" y="531" as="targetPoint" />
          </mxGeometry>
        </mxCell>
        <mxCell id="S5P2pqd0xD6YAmX3UqQr-57" value="" style="endArrow=none;html=1;rounded=0;entryX=1;entryY=0;entryDx=0;entryDy=0;" edge="1" parent="1" target="S5P2pqd0xD6YAmX3UqQr-51">
          <mxGeometry width="50" height="50" relative="1" as="geometry">
            <mxPoint x="900" y="370" as="sourcePoint" />
            <mxPoint x="345" y="565" as="targetPoint" />
          </mxGeometry>
        </mxCell>
        <mxCell id="S5P2pqd0xD6YAmX3UqQr-58" value="&lt;h1 style=&quot;margin-top: 0px;&quot;&gt;Зеленый&lt;/h1&gt;&lt;p&gt;Зеленое обозначение - вопросы по типу связи. Нужна консультация&lt;/p&gt;" style="text;html=1;whiteSpace=wrap;overflow=hidden;rounded=0;" vertex="1" parent="1">
          <mxGeometry x="980" y="270" width="180" height="120" as="geometry" />
        </mxCell>
        <mxCell id="S5P2pqd0xD6YAmX3UqQr-59" value="Внесение данных&lt;div&gt;о состоянии и&lt;/div&gt;&lt;div&gt;поведении животного&lt;/div&gt;" style="ellipse;whiteSpace=wrap;html=1;" vertex="1" parent="1">
          <mxGeometry x="310" y="610" width="160" height="70" as="geometry" />
        </mxCell>
        <mxCell id="S5P2pqd0xD6YAmX3UqQr-60" value="" style="endArrow=none;html=1;rounded=0;entryX=0;entryY=0.5;entryDx=0;entryDy=0;" edge="1" parent="1" source="S5P2pqd0xD6YAmX3UqQr-10" target="S5P2pqd0xD6YAmX3UqQr-59">
          <mxGeometry width="50" height="50" relative="1" as="geometry">
            <mxPoint x="110" y="520" as="sourcePoint" />
            <mxPoint x="373" y="575" as="targetPoint" />
          </mxGeometry>
        </mxCell>
        <mxCell id="S5P2pqd0xD6YAmX3UqQr-61" value="Помощь специалисту по&lt;div&gt;уходу за животными&lt;/div&gt;" style="ellipse;whiteSpace=wrap;html=1;" vertex="1" parent="1">
          <mxGeometry x="175" y="560" width="175" height="60" as="geometry" />
        </mxCell>
        <mxCell id="S5P2pqd0xD6YAmX3UqQr-62" value="данные животного" style="ellipse;whiteSpace=wrap;html=1;" vertex="1" parent="1">
          <mxGeometry x="630" y="860" width="130" height="40" as="geometry" />
        </mxCell>
        <mxCell id="S5P2pqd0xD6YAmX3UqQr-63" value="" style="endArrow=block;html=1;rounded=0;endFill=1;exitX=0;exitY=0;exitDx=0;exitDy=0;entryX=1;entryY=1;entryDx=0;entryDy=0;dashed=1;" edge="1" parent="1" source="S5P2pqd0xD6YAmX3UqQr-62" target="S5P2pqd0xD6YAmX3UqQr-59">
          <mxGeometry width="50" height="50" relative="1" as="geometry">
            <mxPoint x="60" y="710" as="sourcePoint" />
            <mxPoint x="-100" y="490" as="targetPoint" />
          </mxGeometry>
        </mxCell>
        <mxCell id="S5P2pqd0xD6YAmX3UqQr-64" value="" style="endArrow=none;html=1;rounded=0;entryX=0;entryY=0.5;entryDx=0;entryDy=0;" edge="1" parent="1" target="S5P2pqd0xD6YAmX3UqQr-61">
          <mxGeometry width="50" height="50" relative="1" as="geometry">
            <mxPoint x="100" y="590" as="sourcePoint" />
            <mxPoint x="170" y="665" as="targetPoint" />
          </mxGeometry>
        </mxCell>
        <mxCell id="S5P2pqd0xD6YAmX3UqQr-65" value="" style="endArrow=none;html=1;rounded=0;entryX=1;entryY=0.5;entryDx=0;entryDy=0;" edge="1" parent="1" target="S5P2pqd0xD6YAmX3UqQr-59">
          <mxGeometry width="50" height="50" relative="1" as="geometry">
            <mxPoint x="910" y="520" as="sourcePoint" />
            <mxPoint x="473" y="575" as="targetPoint" />
          </mxGeometry>
        </mxCell>
        <mxCell id="S5P2pqd0xD6YAmX3UqQr-66" value="" style="endArrow=none;html=1;rounded=0;entryX=1;entryY=0;entryDx=0;entryDy=0;" edge="1" parent="1" target="S5P2pqd0xD6YAmX3UqQr-59">
          <mxGeometry width="50" height="50" relative="1" as="geometry">
            <mxPoint x="900" y="380" as="sourcePoint" />
            <mxPoint x="520" y="695" as="targetPoint" />
          </mxGeometry>
        </mxCell>
        <mxCell id="S5P2pqd0xD6YAmX3UqQr-67" value="Принятие и обработка заявок на усыновление животных" style="ellipse;whiteSpace=wrap;html=1;" vertex="1" parent="1">
          <mxGeometry x="240" y="725" width="160" height="70" as="geometry" />
        </mxCell>
        <mxCell id="S5P2pqd0xD6YAmX3UqQr-69" value="" style="endArrow=none;html=1;rounded=0;entryX=0;entryY=0.5;entryDx=0;entryDy=0;" edge="1" parent="1" target="S5P2pqd0xD6YAmX3UqQr-67">
          <mxGeometry width="50" height="50" relative="1" as="geometry">
            <mxPoint x="100" y="710" as="sourcePoint" />
            <mxPoint x="358" y="675" as="targetPoint" />
          </mxGeometry>
        </mxCell>
        <mxCell id="S5P2pqd0xD6YAmX3UqQr-70" value="" style="endArrow=none;html=1;rounded=0;entryX=1;entryY=0.5;entryDx=0;entryDy=0;" edge="1" parent="1" target="S5P2pqd0xD6YAmX3UqQr-67">
          <mxGeometry width="50" height="50" relative="1" as="geometry">
            <mxPoint x="910" y="530" as="sourcePoint" />
            <mxPoint x="240" y="755" as="targetPoint" />
          </mxGeometry>
        </mxCell>
        <mxCell id="S5P2pqd0xD6YAmX3UqQr-72" value="" style="endArrow=none;html=1;rounded=0;entryX=1;entryY=0;entryDx=0;entryDy=0;" edge="1" parent="1" target="S5P2pqd0xD6YAmX3UqQr-67">
          <mxGeometry width="50" height="50" relative="1" as="geometry">
            <mxPoint x="900" y="390" as="sourcePoint" />
            <mxPoint x="410" y="770" as="targetPoint" />
          </mxGeometry>
        </mxCell>
        <mxCell id="S5P2pqd0xD6YAmX3UqQr-73" value="" style="endArrow=none;html=1;rounded=0;entryX=0;entryY=0.5;entryDx=0;entryDy=0;" edge="1" parent="1" target="S5P2pqd0xD6YAmX3UqQr-74">
          <mxGeometry width="50" height="50" relative="1" as="geometry">
            <mxPoint x="100" y="820" as="sourcePoint" />
            <mxPoint x="300" y="870" as="targetPoint" />
          </mxGeometry>
        </mxCell>
        <mxCell id="S5P2pqd0xD6YAmX3UqQr-74" value="просмотр&amp;nbsp;&lt;div&gt;каталога&lt;/div&gt;&lt;div&gt;животных&lt;/div&gt;" style="ellipse;whiteSpace=wrap;html=1;" vertex="1" parent="1">
          <mxGeometry x="245" y="820" width="120" height="50" as="geometry" />
        </mxCell>
        <mxCell id="S5P2pqd0xD6YAmX3UqQr-75" value="" style="endArrow=none;html=1;rounded=0;entryX=1;entryY=0.5;entryDx=0;entryDy=0;" edge="1" parent="1" target="S5P2pqd0xD6YAmX3UqQr-74">
          <mxGeometry width="50" height="50" relative="1" as="geometry">
            <mxPoint x="910" y="540" as="sourcePoint" />
            <mxPoint x="500" y="985" as="targetPoint" />
          </mxGeometry>
        </mxCell>
        <mxCell id="S5P2pqd0xD6YAmX3UqQr-76" value="" style="endArrow=block;html=1;rounded=0;endFill=1;exitX=0.5;exitY=1;exitDx=0;exitDy=0;entryX=0;entryY=0;entryDx=0;entryDy=0;dashed=1;" edge="1" parent="1" source="S5P2pqd0xD6YAmX3UqQr-74" target="S5P2pqd0xD6YAmX3UqQr-77">
          <mxGeometry width="50" height="50" relative="1" as="geometry">
            <mxPoint x="680" y="715" as="sourcePoint" />
            <mxPoint x="457" y="679" as="targetPoint" />
          </mxGeometry>
        </mxCell>
        <mxCell id="S5P2pqd0xD6YAmX3UqQr-77" value="Создание заявки&lt;div&gt;на усыновление&lt;/div&gt;&lt;div&gt;животного&lt;/div&gt;" style="ellipse;whiteSpace=wrap;html=1;" vertex="1" parent="1">
          <mxGeometry x="338" y="910" width="150" height="60" as="geometry" />
        </mxCell>
        <mxCell id="S5P2pqd0xD6YAmX3UqQr-78" value="" style="endArrow=none;html=1;rounded=0;entryX=0;entryY=0.5;entryDx=0;entryDy=0;" edge="1" parent="1" target="S5P2pqd0xD6YAmX3UqQr-77">
          <mxGeometry width="50" height="50" relative="1" as="geometry">
            <mxPoint x="100" y="830" as="sourcePoint" />
            <mxPoint x="310" y="865" as="targetPoint" />
          </mxGeometry>
        </mxCell>
        <mxCell id="S5P2pqd0xD6YAmX3UqQr-79" value="" style="endArrow=block;html=1;rounded=0;endFill=1;exitX=0.5;exitY=0;exitDx=0;exitDy=0;entryX=1;entryY=1;entryDx=0;entryDy=0;dashed=1;" edge="1" parent="1" source="S5P2pqd0xD6YAmX3UqQr-77" target="S5P2pqd0xD6YAmX3UqQr-67">
          <mxGeometry width="50" height="50" relative="1" as="geometry">
            <mxPoint x="315" y="880" as="sourcePoint" />
            <mxPoint x="370" y="929" as="targetPoint" />
          </mxGeometry>
        </mxCell>
        <mxCell id="S5P2pqd0xD6YAmX3UqQr-80" value="" style="endArrow=none;html=1;rounded=0;entryX=1;entryY=0.5;entryDx=0;entryDy=0;" edge="1" parent="1" target="S5P2pqd0xD6YAmX3UqQr-77">
          <mxGeometry width="50" height="50" relative="1" as="geometry">
            <mxPoint x="920" y="540" as="sourcePoint" />
            <mxPoint x="375" y="855" as="targetPoint" />
          </mxGeometry>
        </mxCell>
        <mxCell id="S5P2pqd0xD6YAmX3UqQr-81" value="" style="endArrow=none;html=1;rounded=0;entryX=1;entryY=0;entryDx=0;entryDy=0;" edge="1" parent="1" target="S5P2pqd0xD6YAmX3UqQr-77">
          <mxGeometry width="50" height="50" relative="1" as="geometry">
            <mxPoint x="900" y="400" as="sourcePoint" />
            <mxPoint x="498" y="950" as="targetPoint" />
          </mxGeometry>
        </mxCell>
        <mxCell id="S5P2pqd0xD6YAmX3UqQr-82" value="extend" style="text;html=1;align=center;verticalAlign=middle;resizable=0;points=[];autosize=1;strokeColor=none;fillColor=none;" vertex="1" parent="1">
          <mxGeometry x="620" y="820" width="60" height="30" as="geometry" />
        </mxCell>
        <mxCell id="S5P2pqd0xD6YAmX3UqQr-83" value="extend" style="text;html=1;align=center;verticalAlign=middle;resizable=0;points=[];autosize=1;strokeColor=none;fillColor=none;" vertex="1" parent="1">
          <mxGeometry x="400" y="850" width="60" height="30" as="geometry" />
        </mxCell>
        <mxCell id="S5P2pqd0xD6YAmX3UqQr-84" value="include" style="text;html=1;align=center;verticalAlign=middle;resizable=0;points=[];autosize=1;strokeColor=none;fillColor=none;" vertex="1" parent="1">
          <mxGeometry x="335" y="880" width="60" height="30" as="geometry" />
        </mxCell>
        <mxCell id="S5P2pqd0xD6YAmX3UqQr-85" value="extend" style="text;html=1;align=center;verticalAlign=middle;resizable=0;points=[];autosize=1;strokeColor=none;fillColor=none;" vertex="1" parent="1">
          <mxGeometry x="470" y="220" width="60" height="30" as="geometry" />
        </mxCell>
      </root>
    </mxGraphModel>
  </diagram>
</mxfile>
